<?xml version="1.0" standalone="no"?>
<!DOCTYPE svg PUBLIC "-//W3C//DTD SVG 20010904//EN"
 "http://www.w3.org/TR/2001/REC-SVG-20010904/DTD/svg10.dtd">
<svg version="1.0" xmlns="http://www.w3.org/2000/svg"
 width="1360.000000pt" height="1360.000000pt" viewBox="0 0 1360.000000 1360.000000"
 preserveAspectRatio="xMidYMid meet">

<g transform="translate(0.000000,1360.000000) scale(0.100000,-0.100000)"
fill="#000000" stroke="none">
<path d="M7003 11922 c-102 -88 -368 -385 -481 -536 -73 -96 -71 -118 11 -182
105 -82 215 -182 363 -326 132 -130 143 -138 180 -138 33 0 53 11 123 65 226
173 377 330 443 459 27 51 32 73 32 132 0 60 -5 81 -31 135 -52 105 -205 248
-422 393 -112 75 -129 74 -218 -2z"/>
<path d="M6260 9265 c-172 -22 -284 -52 -400 -110 -202 -101 -383 -309 -519
-597 -71 -150 -135 -318 -124 -329 9 -8 139 -49 157 -49 6 0 34 34 61 76 91
140 213 227 360 259 154 34 593 29 1065 -11 178 -15 341 -38 367 -52 9 -6 -39
-44 -162 -126 -792 -531 -1443 -1146 -1903 -1796 -231 -329 -454 -746 -579
-1090 -124 -337 -204 -701 -234 -1057 -15 -187 -7 -571 16 -723 59 -396 208
-748 431 -1021 80 -98 256 -265 354 -335 295 -213 648 -336 1074 -375 176 -16
513 -6 684 20 482 74 914 255 1329 558 699 510 1278 1304 1732 2376 39 92 71
171 71 176 0 7 -178 61 -203 61 -7 0 -36 -48 -66 -107 -80 -161 -172 -321
-276 -478 -543 -823 -1230 -1265 -2116 -1361 -193 -21 -615 -15 -779 11 -361
56 -644 159 -890 323 -376 251 -603 600 -681 1047 -18 104 -23 169 -23 325 -1
324 51 586 180 907 183 457 490 894 969 1382 416 423 886 798 1445 1154 158
100 264 189 359 298 125 145 248 349 237 394 -10 41 -274 115 -602 169 -194
32 -523 73 -688 86 -174 14 -517 11 -646 -5z"/>
</g>
</svg>
